# xmcd
#
# Track frame offsets: 
#        150
#        13763
#        25210
#        35368
#        45956
#        57232
#        68273
#        80118
#        91961
#        102583
#        115593
#        125095
#        137585
#        147707
#        158993
#        172034
#        182650
#        196746
#        209619
#        222789
#        231645
#        240980
#        250942
#        261962
#        274356
#        286967
#        301904
#        314690
#
# Disc length: 4350 seconds
#
# Revision: 0
# Processed by: cddbd v1.5.2PL0 Copyright (c) Steve Scherf et al.
# Submitted via: ExactAudioCopy v0.95b4
#
DISCID=a110fc1c
DTITLE=Maxine Brown - Best Of The Wand Years
DYEAR=2009
DGENRE=Soul
TTITLE0=One In A Million
TTITLE1=It's Torture
TTITLE2=Let Me Give You My Lovin'
TTITLE3=I Want A Guarantee
TTITLE4=Yesterday's Kisses
TTITLE5=Wonder What My Baby's Doing Tonight
TTITLE6=Oh No, Not My Baby
TTITLE7=Love That Man
TTITLE8=You're In Love
TTITLE9=Gotta Find A Way
TTITLE10=Am I Falling In Love
TTITLE11=She's Got Everything
TTITLE12=Little Girl Lost
TTITLE13=Baby Cakes
TTITLE14=The Secret Of Livin'
TTITLE15=Why Did I Choose You
TTITLE16=Everybody Needs Love
TTITLE17=Misty Morning Eyes
TTITLE18=Since I Found You
TTITLE19=Whatever Happened To Our Love
TTITLE20=One Step At A Time
TTITLE21=Put Yourself In My Place
TTITLE22=That's All I Want From You
TTITLE23=Anything For A Laugh
TTITLE24=Losing My Touch
TTITLE25=Oh Lord, What Are You Doing To Me
TTITLE26=If I Had Known
TTITLE27=It's Gonna Be Alright
EXTD=
EXTT0=
EXTT1=
EXTT2=
EXTT3=
EXTT4=
EXTT5=
EXTT6=
EXTT7=
EXTT8=
EXTT9=
EXTT10=
EXTT11=
EXTT12=
EXTT13=
EXTT14=
EXTT15=
EXTT16=
EXTT17=
EXTT18=
EXTT19=
EXTT20=
EXTT21=
EXTT22=
EXTT23=
EXTT24=
EXTT25=
EXTT26=
EXTT27=
PLAYORDER=
